<?xml version="1.0" encoding="UTF-8" standalone="no"?>
<!DOCTYPE svg PUBLIC "-//W3C//DTD SVG 1.1//EN"
 "http://www.w3.org/Graphics/SVG/1.1/DTD/svg11.dtd">
<!-- Generated by graphviz version 2.43.0 (0)
 -->
<!-- Title: snakemake_dag Pages: 1 -->
<svg width="835pt" height="337pt"
 viewBox="0.00 0.00 835.24 337.00" xmlns="http://www.w3.org/2000/svg" xmlns:xlink="http://www.w3.org/1999/xlink">
<g id="graph0" class="graph" transform="scale(1 1) rotate(0) translate(4 333)">
<title>snakemake_dag</title>
<polygon fill="white" stroke="transparent" points="-4,4 -4,-333 831.24,-333 831.24,4 -4,4"/>
<!-- 0 -->
<g id="node1" class="node">
<title>0</title>
<path fill="none" stroke="#d8c356" stroke-width="2" d="M349.5,-36C349.5,-36 319.5,-36 319.5,-36 313.5,-36 307.5,-30 307.5,-24 307.5,-24 307.5,-12 307.5,-12 307.5,-6 313.5,0 319.5,0 319.5,0 349.5,0 349.5,0 355.5,0 361.5,-6 361.5,-12 361.5,-12 361.5,-24 361.5,-24 361.5,-30 355.5,-36 349.5,-36"/>
<text text-anchor="middle" x="334.5" y="-15.5" font-family="sans" font-size="10.00">all</text>
</g>
<!-- 1 -->
<g id="node2" class="node">
<title>1</title>
<path fill="none" stroke="#59d856" stroke-width="2" d="M109,-252C109,-252 36,-252 36,-252 30,-252 24,-246 24,-240 24,-240 24,-228 24,-228 24,-222 30,-216 36,-216 36,-216 109,-216 109,-216 115,-216 121,-222 121,-228 121,-228 121,-240 121,-240 121,-246 115,-252 109,-252"/>
<text text-anchor="middle" x="72.5" y="-231.5" font-family="sans" font-size="10.00">qc_trimmomatic</text>
</g>
<!-- 1&#45;&gt;0 -->
<g id="edge1" class="edge">
<title>1&#45;&gt;0</title>
<path fill="none" stroke="grey" stroke-width="2" d="M88.36,-215.66C117.3,-184.58 181.42,-118.35 243.5,-72 260.56,-59.26 280.92,-47.15 298.06,-37.73"/>
<polygon fill="grey" stroke="grey" stroke-width="2" points="300.08,-40.61 307.21,-32.78 296.75,-34.46 300.08,-40.61"/>
</g>
<!-- 7 -->
<g id="node8" class="node">
<title>7</title>
<path fill="none" stroke="#56c9d8" stroke-width="2" d="M349,-180C349,-180 282,-180 282,-180 276,-180 270,-174 270,-168 270,-168 270,-156 270,-156 270,-150 276,-144 282,-144 282,-144 349,-144 349,-144 355,-144 361,-150 361,-156 361,-156 361,-168 361,-168 361,-174 355,-180 349,-180"/>
<text text-anchor="middle" x="315.5" y="-159.5" font-family="sans" font-size="10.00">map_bwa_map</text>
</g>
<!-- 1&#45;&gt;7 -->
<g id="edge12" class="edge">
<title>1&#45;&gt;7</title>
<path fill="none" stroke="grey" stroke-width="2" d="M121.31,-218.4C124.08,-217.59 126.82,-216.78 129.5,-216 173.25,-203.24 222.9,-189.11 259.89,-178.65"/>
<polygon fill="grey" stroke="grey" stroke-width="2" points="261.3,-181.89 269.97,-175.8 259.4,-175.16 261.3,-181.89"/>
</g>
<!-- 2 -->
<g id="node3" class="node">
<title>2</title>
<path fill="none" stroke="#78d856" stroke-width="2" d="M101,-329C101,-329 12,-329 12,-329 6,-329 0,-323 0,-317 0,-317 0,-300 0,-300 0,-294 6,-288 12,-288 12,-288 101,-288 101,-288 107,-288 113,-294 113,-300 113,-300 113,-317 113,-317 113,-323 107,-329 101,-329"/>
<text text-anchor="middle" x="56.5" y="-317" font-family="sans" font-size="10.00">raw_make_links_pe</text>
<text text-anchor="middle" x="56.5" y="-306" font-family="sans" font-size="10.00">library: lib1</text>
<text text-anchor="middle" x="56.5" y="-295" font-family="sans" font-size="10.00">population: pop1</text>
</g>
<!-- 2&#45;&gt;1 -->
<g id="edge9" class="edge">
<title>2&#45;&gt;1</title>
<path fill="none" stroke="grey" stroke-width="2" d="M60.87,-287.69C62.61,-279.82 64.63,-270.64 66.5,-262.17"/>
<polygon fill="grey" stroke="grey" stroke-width="2" points="69.94,-262.84 68.68,-252.32 63.1,-261.33 69.94,-262.84"/>
</g>
<!-- 3 -->
<g id="node4" class="node">
<title>3</title>
<path fill="none" stroke="#59d856" stroke-width="2" d="M224,-252C224,-252 151,-252 151,-252 145,-252 139,-246 139,-240 139,-240 139,-228 139,-228 139,-222 145,-216 151,-216 151,-216 224,-216 224,-216 230,-216 236,-222 236,-228 236,-228 236,-240 236,-240 236,-246 230,-252 224,-252"/>
<text text-anchor="middle" x="187.5" y="-231.5" font-family="sans" font-size="10.00">qc_trimmomatic</text>
</g>
<!-- 3&#45;&gt;0 -->
<g id="edge2" class="edge">
<title>3&#45;&gt;0</title>
<path fill="none" stroke="grey" stroke-width="2" d="M193.9,-215.73C205.9,-184.78 234.01,-118.72 271.5,-72 280.2,-61.16 291.37,-50.91 301.89,-42.37"/>
<polygon fill="grey" stroke="grey" stroke-width="2" points="304.06,-45.11 309.76,-36.18 299.73,-39.61 304.06,-45.11"/>
</g>
<!-- 10 -->
<g id="node11" class="node">
<title>10</title>
<path fill="none" stroke="#56c9d8" stroke-width="2" d="M458,-180C458,-180 391,-180 391,-180 385,-180 379,-174 379,-168 379,-168 379,-156 379,-156 379,-150 385,-144 391,-144 391,-144 458,-144 458,-144 464,-144 470,-150 470,-156 470,-156 470,-168 470,-168 470,-174 464,-180 458,-180"/>
<text text-anchor="middle" x="424.5" y="-159.5" font-family="sans" font-size="10.00">map_bwa_map</text>
</g>
<!-- 3&#45;&gt;10 -->
<g id="edge16" class="edge">
<title>3&#45;&gt;10</title>
<path fill="none" stroke="grey" stroke-width="2" d="M236,-218.5C238.88,-217.65 241.73,-216.81 244.5,-216 297.05,-200.6 312.5,-196.91 369.06,-180.1"/>
<polygon fill="grey" stroke="grey" stroke-width="2" points="370.32,-183.38 378.9,-177.17 368.32,-176.67 370.32,-183.38"/>
</g>
<!-- 4 -->
<g id="node5" class="node">
<title>4</title>
<path fill="none" stroke="#78d856" stroke-width="2" d="M232,-329C232,-329 143,-329 143,-329 137,-329 131,-323 131,-317 131,-317 131,-300 131,-300 131,-294 137,-288 143,-288 143,-288 232,-288 232,-288 238,-288 244,-294 244,-300 244,-300 244,-317 244,-317 244,-323 238,-329 232,-329"/>
<text text-anchor="middle" x="187.5" y="-317" font-family="sans" font-size="10.00">raw_make_links_pe</text>
<text text-anchor="middle" x="187.5" y="-306" font-family="sans" font-size="10.00">library: lib2</text>
<text text-anchor="middle" x="187.5" y="-295" font-family="sans" font-size="10.00">population: pop1</text>
</g>
<!-- 4&#45;&gt;3 -->
<g id="edge10" class="edge">
<title>4&#45;&gt;3</title>
<path fill="none" stroke="grey" stroke-width="2" d="M187.5,-287.69C187.5,-279.91 187.5,-270.84 187.5,-262.45"/>
<polygon fill="grey" stroke="grey" stroke-width="2" points="191,-262.32 187.5,-252.32 184,-262.32 191,-262.32"/>
</g>
<!-- 5 -->
<g id="node6" class="node">
<title>5</title>
<path fill="none" stroke="#59d856" stroke-width="2" d="M339,-252C339,-252 266,-252 266,-252 260,-252 254,-246 254,-240 254,-240 254,-228 254,-228 254,-222 260,-216 266,-216 266,-216 339,-216 339,-216 345,-216 351,-222 351,-228 351,-228 351,-240 351,-240 351,-246 345,-252 339,-252"/>
<text text-anchor="middle" x="302.5" y="-231.5" font-family="sans" font-size="10.00">qc_trimmomatic</text>
</g>
<!-- 5&#45;&gt;0 -->
<g id="edge3" class="edge">
<title>5&#45;&gt;0</title>
<path fill="none" stroke="grey" stroke-width="2" d="M283.9,-215.76C274.97,-206.2 265.21,-193.53 260.5,-180 255.24,-164.89 256.27,-159.43 260.5,-144 270.82,-106.31 295.76,-68.44 313.84,-44.43"/>
<polygon fill="grey" stroke="grey" stroke-width="2" points="316.83,-46.29 320.15,-36.23 311.28,-42.02 316.83,-46.29"/>
</g>
<!-- 11 -->
<g id="node12" class="node">
<title>11</title>
<path fill="none" stroke="#56c9d8" stroke-width="2" d="M567,-180C567,-180 500,-180 500,-180 494,-180 488,-174 488,-168 488,-168 488,-156 488,-156 488,-150 494,-144 500,-144 500,-144 567,-144 567,-144 573,-144 579,-150 579,-156 579,-156 579,-168 579,-168 579,-174 573,-180 567,-180"/>
<text text-anchor="middle" x="533.5" y="-159.5" font-family="sans" font-size="10.00">map_bwa_map</text>
</g>
<!-- 5&#45;&gt;11 -->
<g id="edge19" class="edge">
<title>5&#45;&gt;11</title>
<path fill="none" stroke="grey" stroke-width="2" d="M351.01,-218.67C384.39,-208.77 429.98,-195.16 478.18,-180.39"/>
<polygon fill="grey" stroke="grey" stroke-width="2" points="479.32,-183.7 487.85,-177.42 477.26,-177.01 479.32,-183.7"/>
</g>
<!-- 6 -->
<g id="node7" class="node">
<title>6</title>
<path fill="none" stroke="#78d856" stroke-width="2" d="M363,-329C363,-329 274,-329 274,-329 268,-329 262,-323 262,-317 262,-317 262,-300 262,-300 262,-294 268,-288 274,-288 274,-288 363,-288 363,-288 369,-288 375,-294 375,-300 375,-300 375,-317 375,-317 375,-323 369,-329 363,-329"/>
<text text-anchor="middle" x="318.5" y="-317" font-family="sans" font-size="10.00">raw_make_links_pe</text>
<text text-anchor="middle" x="318.5" y="-306" font-family="sans" font-size="10.00">library: lib1</text>
<text text-anchor="middle" x="318.5" y="-295" font-family="sans" font-size="10.00">population: pop2</text>
</g>
<!-- 6&#45;&gt;5 -->
<g id="edge11" class="edge">
<title>6&#45;&gt;5</title>
<path fill="none" stroke="grey" stroke-width="2" d="M314.13,-287.69C312.39,-279.82 310.37,-270.64 308.5,-262.17"/>
<polygon fill="grey" stroke="grey" stroke-width="2" points="311.9,-261.33 306.32,-252.32 305.06,-262.84 311.9,-261.33"/>
</g>
<!-- 7&#45;&gt;0 -->
<g id="edge4" class="edge">
<title>7&#45;&gt;0</title>
<path fill="none" stroke="grey" stroke-width="2" d="M317.79,-143.87C321.03,-119.67 326.98,-75.21 330.83,-46.39"/>
<polygon fill="grey" stroke="grey" stroke-width="2" points="334.34,-46.57 332.2,-36.19 327.4,-45.64 334.34,-46.57"/>
</g>
<!-- 12 -->
<g id="node13" class="node">
<title>12</title>
<path fill="none" stroke="#d85656" stroke-width="2" d="M507.5,-108C507.5,-108 431.5,-108 431.5,-108 425.5,-108 419.5,-102 419.5,-96 419.5,-96 419.5,-84 419.5,-84 419.5,-78 425.5,-72 431.5,-72 431.5,-72 507.5,-72 507.5,-72 513.5,-72 519.5,-78 519.5,-84 519.5,-84 519.5,-96 519.5,-96 519.5,-102 513.5,-108 507.5,-108"/>
<text text-anchor="middle" x="469.5" y="-87.5" font-family="sans" font-size="10.00">bcftools_mpileup</text>
</g>
<!-- 7&#45;&gt;12 -->
<g id="edge22" class="edge">
<title>7&#45;&gt;12</title>
<path fill="none" stroke="grey" stroke-width="2" d="M353.17,-143.88C374.13,-134.35 400.4,-122.41 422.68,-112.28"/>
<polygon fill="grey" stroke="grey" stroke-width="2" points="424.29,-115.39 431.95,-108.07 421.4,-109.02 424.29,-115.39"/>
</g>
<!-- 8 -->
<g id="node9" class="node">
<title>8</title>
<path fill="none" stroke="#d8a456" stroke-width="2" d="M491.5,-252C491.5,-252 419.5,-252 419.5,-252 413.5,-252 407.5,-246 407.5,-240 407.5,-240 407.5,-228 407.5,-228 407.5,-222 413.5,-216 419.5,-216 419.5,-216 491.5,-216 491.5,-216 497.5,-216 503.5,-222 503.5,-228 503.5,-228 503.5,-240 503.5,-240 503.5,-246 497.5,-252 491.5,-252"/>
<text text-anchor="middle" x="455.5" y="-231.5" font-family="sans" font-size="10.00">map_bwa_index</text>
</g>
<!-- 8&#45;&gt;7 -->
<g id="edge13" class="edge">
<title>8&#45;&gt;7</title>
<path fill="none" stroke="grey" stroke-width="2" d="M421.25,-215.88C402.44,-206.47 378.92,-194.71 358.83,-184.67"/>
<polygon fill="grey" stroke="grey" stroke-width="2" points="360.39,-181.53 349.88,-180.19 357.26,-187.79 360.39,-181.53"/>
</g>
<!-- 8&#45;&gt;10 -->
<g id="edge17" class="edge">
<title>8&#45;&gt;10</title>
<path fill="none" stroke="grey" stroke-width="2" d="M447.84,-215.7C444.31,-207.73 440.04,-198.1 436.13,-189.26"/>
<polygon fill="grey" stroke="grey" stroke-width="2" points="439.32,-187.83 432.07,-180.1 432.92,-190.67 439.32,-187.83"/>
</g>
<!-- 8&#45;&gt;11 -->
<g id="edge20" class="edge">
<title>8&#45;&gt;11</title>
<path fill="none" stroke="grey" stroke-width="2" d="M474.78,-215.7C484.42,-207.05 496.23,-196.45 506.73,-187.03"/>
<polygon fill="grey" stroke="grey" stroke-width="2" points="509.34,-189.39 514.44,-180.1 504.66,-184.18 509.34,-189.39"/>
</g>
<!-- 9 -->
<g id="node10" class="node">
<title>9</title>
<path fill="none" stroke="#56d87b" stroke-width="2" d="M617,-326.5C617,-326.5 522,-326.5 522,-326.5 516,-326.5 510,-320.5 510,-314.5 510,-314.5 510,-302.5 510,-302.5 510,-296.5 516,-290.5 522,-290.5 522,-290.5 617,-290.5 617,-290.5 623,-290.5 629,-296.5 629,-302.5 629,-302.5 629,-314.5 629,-314.5 629,-320.5 623,-326.5 617,-326.5"/>
<text text-anchor="middle" x="569.5" y="-306" font-family="sans" font-size="10.00">raw_extract_genome</text>
</g>
<!-- 9&#45;&gt;7 -->
<g id="edge14" class="edge">
<title>9&#45;&gt;7</title>
<path fill="none" stroke="grey" stroke-width="2" d="M509.68,-295.94C475.28,-287.44 432.33,-273.54 398.5,-252 384.39,-243.02 355.99,-211.1 336.36,-188.06"/>
<polygon fill="grey" stroke="grey" stroke-width="2" points="338.96,-185.7 329.83,-180.33 333.61,-190.22 338.96,-185.7"/>
</g>
<!-- 9&#45;&gt;8 -->
<g id="edge15" class="edge">
<title>9&#45;&gt;8</title>
<path fill="none" stroke="grey" stroke-width="2" d="M542.48,-290.32C527.15,-280.57 507.77,-268.24 491.2,-257.7"/>
<polygon fill="grey" stroke="grey" stroke-width="2" points="492.64,-254.47 482.32,-252.06 488.88,-260.38 492.64,-254.47"/>
</g>
<!-- 9&#45;&gt;10 -->
<g id="edge18" class="edge">
<title>9&#45;&gt;10</title>
<path fill="none" stroke="grey" stroke-width="2" d="M561.86,-290.32C552.45,-270.58 534.9,-238.07 512.5,-216 500.29,-203.98 484.86,-193.51 470.33,-185.13"/>
<polygon fill="grey" stroke="grey" stroke-width="2" points="471.89,-181.99 461.45,-180.19 468.48,-188.11 471.89,-181.99"/>
</g>
<!-- 9&#45;&gt;11 -->
<g id="edge21" class="edge">
<title>9&#45;&gt;11</title>
<path fill="none" stroke="grey" stroke-width="2" d="M565.23,-290.36C559.06,-265.59 547.59,-219.55 540.26,-190.13"/>
<polygon fill="grey" stroke="grey" stroke-width="2" points="543.58,-188.98 537.77,-180.12 536.79,-190.67 543.58,-188.98"/>
</g>
<!-- 9&#45;&gt;12 -->
<g id="edge24" class="edge">
<title>9&#45;&gt;12</title>
<path fill="none" stroke="grey" stroke-width="2" d="M578.19,-290.33C592.89,-258.62 618.3,-189.9 588.5,-144 575.14,-123.42 551.72,-110.76 529.18,-103.01"/>
<polygon fill="grey" stroke="grey" stroke-width="2" points="530.2,-99.66 519.61,-99.98 528.08,-106.34 530.2,-99.66"/>
</g>
<!-- 13 -->
<g id="node14" class="node">
<title>13</title>
<path fill="none" stroke="#c6d856" stroke-width="2" d="M799,-180C799,-180 648,-180 648,-180 642,-180 636,-174 636,-168 636,-168 636,-156 636,-156 636,-150 642,-144 648,-144 648,-144 799,-144 799,-144 805,-144 811,-150 811,-156 811,-156 811,-168 811,-168 811,-174 805,-180 799,-180"/>
<text text-anchor="middle" x="723.5" y="-165" font-family="sans" font-size="10.00">index_fasta</text>
<text text-anchor="middle" x="723.5" y="-154" font-family="sans" font-size="10.00">filename: results/raw/genome.fa</text>
</g>
<!-- 9&#45;&gt;13 -->
<g id="edge26" class="edge">
<title>9&#45;&gt;13</title>
<path fill="none" stroke="grey" stroke-width="2" d="M587.77,-290.36C615.09,-264.72 666.71,-216.29 697.81,-187.1"/>
<polygon fill="grey" stroke="grey" stroke-width="2" points="700.36,-189.52 705.25,-180.12 695.57,-184.41 700.36,-189.52"/>
</g>
<!-- 14 -->
<g id="node15" class="node">
<title>14</title>
<path fill="none" stroke="#d85656" stroke-width="2" d="M693.5,-108C693.5,-108 617.5,-108 617.5,-108 611.5,-108 605.5,-102 605.5,-96 605.5,-96 605.5,-84 605.5,-84 605.5,-78 611.5,-72 617.5,-72 617.5,-72 693.5,-72 693.5,-72 699.5,-72 705.5,-78 705.5,-84 705.5,-84 705.5,-96 705.5,-96 705.5,-102 699.5,-108 693.5,-108"/>
<text text-anchor="middle" x="655.5" y="-87.5" font-family="sans" font-size="10.00">bcftools_mpileup</text>
</g>
<!-- 9&#45;&gt;14 -->
<g id="edge28" class="edge">
<title>9&#45;&gt;14</title>
<path fill="none" stroke="grey" stroke-width="2" d="M629.14,-295.92C689.3,-280.72 779.02,-247.59 820.5,-180 828.87,-166.36 829.93,-156.93 820.5,-144 796.68,-111.33 752.41,-98.36 715.72,-93.4"/>
<polygon fill="grey" stroke="grey" stroke-width="2" points="715.94,-89.9 705.59,-92.21 715.12,-96.85 715.94,-89.9"/>
</g>
<!-- 10&#45;&gt;0 -->
<g id="edge5" class="edge">
<title>10&#45;&gt;0</title>
<path fill="none" stroke="grey" stroke-width="2" d="M407.1,-143.85C397.61,-133.94 386.09,-120.9 377.5,-108 364.33,-88.24 352.84,-63.84 345.05,-45.59"/>
<polygon fill="grey" stroke="grey" stroke-width="2" points="348.2,-44.03 341.12,-36.15 341.74,-46.72 348.2,-44.03"/>
</g>
<!-- 10&#45;&gt;12 -->
<g id="edge23" class="edge">
<title>10&#45;&gt;12</title>
<path fill="none" stroke="grey" stroke-width="2" d="M435.62,-143.7C440.86,-135.56 447.2,-125.69 452.98,-116.7"/>
<polygon fill="grey" stroke="grey" stroke-width="2" points="456.04,-118.41 458.5,-108.1 450.15,-114.62 456.04,-118.41"/>
</g>
<!-- 11&#45;&gt;0 -->
<g id="edge6" class="edge">
<title>11&#45;&gt;0</title>
<path fill="none" stroke="grey" stroke-width="2" d="M487.92,-147.01C463.53,-138.19 433.8,-125.18 410.5,-108 403.85,-103.1 374.98,-68.51 354.81,-43.93"/>
<polygon fill="grey" stroke="grey" stroke-width="2" points="357.39,-41.56 348.34,-36.04 351.97,-45.99 357.39,-41.56"/>
</g>
<!-- 11&#45;&gt;14 -->
<g id="edge27" class="edge">
<title>11&#45;&gt;14</title>
<path fill="none" stroke="grey" stroke-width="2" d="M563.34,-143.88C579.44,-134.64 599.5,-123.13 616.79,-113.21"/>
<polygon fill="grey" stroke="grey" stroke-width="2" points="618.61,-116.2 625.54,-108.19 615.13,-110.13 618.61,-116.2"/>
</g>
<!-- 12&#45;&gt;0 -->
<g id="edge7" class="edge">
<title>12&#45;&gt;0</title>
<path fill="none" stroke="grey" stroke-width="2" d="M436.48,-71.88C416.57,-61.56 391.21,-48.4 370.75,-37.8"/>
<polygon fill="grey" stroke="grey" stroke-width="2" points="372.23,-34.62 361.74,-33.12 369,-40.83 372.23,-34.62"/>
</g>
<!-- 13&#45;&gt;12 -->
<g id="edge25" class="edge">
<title>13&#45;&gt;12</title>
<path fill="none" stroke="grey" stroke-width="2" d="M661.69,-143.97C621.48,-132.89 569.32,-118.51 529.48,-107.53"/>
<polygon fill="grey" stroke="grey" stroke-width="2" points="530.21,-104.1 519.64,-104.82 528.35,-110.85 530.21,-104.1"/>
</g>
<!-- 13&#45;&gt;14 -->
<g id="edge29" class="edge">
<title>13&#45;&gt;14</title>
<path fill="none" stroke="grey" stroke-width="2" d="M706.69,-143.7C698.37,-135.14 688.19,-124.66 679.11,-115.3"/>
<polygon fill="grey" stroke="grey" stroke-width="2" points="681.59,-112.84 672.12,-108.1 676.57,-117.72 681.59,-112.84"/>
</g>
<!-- 14&#45;&gt;0 -->
<g id="edge8" class="edge">
<title>14&#45;&gt;0</title>
<path fill="none" stroke="grey" stroke-width="2" d="M605.34,-78.06C540.47,-63.92 428.98,-39.6 371.36,-27.04"/>
<polygon fill="grey" stroke="grey" stroke-width="2" points="372.11,-23.62 361.59,-24.91 370.62,-30.46 372.11,-23.62"/>
</g>
</g>
</svg>
