<?xml version="1.0" encoding="UTF-8" standalone="no"?>
<!DOCTYPE svg PUBLIC "-//W3C//DTD SVG 1.1//EN"
 "http://www.w3.org/Graphics/SVG/1.1/DTD/svg11.dtd">
<!-- Generated by graphviz version 2.43.0 (0)
 -->
<!-- Title: snakemake_dag Pages: 1 -->
<svg width="315pt" height="332pt"
 viewBox="0.00 0.00 315.00 332.00" xmlns="http://www.w3.org/2000/svg" xmlns:xlink="http://www.w3.org/1999/xlink">
<g id="graph0" class="graph" transform="scale(1 1) rotate(0) translate(4 328)">
<title>snakemake_dag</title>
<polygon fill="white" stroke="transparent" points="-4,4 -4,-328 311,-328 311,4 -4,4"/>
<!-- 0 -->
<g id="node1" class="node">
<title>0</title>
<path fill="none" stroke="#d8c356" stroke-width="2" d="M182.5,-36C182.5,-36 152.5,-36 152.5,-36 146.5,-36 140.5,-30 140.5,-24 140.5,-24 140.5,-12 140.5,-12 140.5,-6 146.5,0 152.5,0 152.5,0 182.5,0 182.5,0 188.5,0 194.5,-6 194.5,-12 194.5,-12 194.5,-24 194.5,-24 194.5,-30 188.5,-36 182.5,-36"/>
<text text-anchor="middle" x="167.5" y="-15.5" font-family="sans" font-size="10.00">all</text>
</g>
<!-- 1 -->
<g id="node2" class="node">
<title>1</title>
<path fill="none" stroke="#56c9d8" stroke-width="2" d="M287,-252C287,-252 214,-252 214,-252 208,-252 202,-246 202,-240 202,-240 202,-228 202,-228 202,-222 208,-216 214,-216 214,-216 287,-216 287,-216 293,-216 299,-222 299,-228 299,-228 299,-240 299,-240 299,-246 293,-252 287,-252"/>
<text text-anchor="middle" x="250.5" y="-231.5" font-family="sans" font-size="10.00">qc_trimmomatic</text>
</g>
<!-- 1&#45;&gt;0 -->
<g id="edge2" class="edge">
<title>1&#45;&gt;0</title>
<path fill="none" stroke="grey" stroke-width="2" d="M245.68,-215.75C240.49,-197.68 231.74,-168.56 222.5,-144 209.46,-109.32 191.85,-70.41 180.1,-45.35"/>
<polygon fill="grey" stroke="grey" stroke-width="2" points="183.19,-43.69 175.76,-36.14 176.86,-46.68 183.19,-43.69"/>
</g>
<!-- 3 -->
<g id="node4" class="node">
<title>3</title>
<path fill="none" stroke="#9fd856" stroke-width="2" d="M201,-180C201,-180 134,-180 134,-180 128,-180 122,-174 122,-168 122,-168 122,-156 122,-156 122,-150 128,-144 134,-144 134,-144 201,-144 201,-144 207,-144 213,-150 213,-156 213,-156 213,-168 213,-168 213,-174 207,-180 201,-180"/>
<text text-anchor="middle" x="167.5" y="-159.5" font-family="sans" font-size="10.00">map_bwa_map</text>
</g>
<!-- 1&#45;&gt;3 -->
<g id="edge5" class="edge">
<title>1&#45;&gt;3</title>
<path fill="none" stroke="grey" stroke-width="2" d="M229.98,-215.7C219.63,-206.97 206.91,-196.24 195.66,-186.75"/>
<polygon fill="grey" stroke="grey" stroke-width="2" points="197.68,-183.88 187.78,-180.1 193.17,-189.23 197.68,-183.88"/>
</g>
<!-- 2 -->
<g id="node3" class="node">
<title>2</title>
<path fill="none" stroke="#c6d856" stroke-width="2" d="M295,-324C295,-324 206,-324 206,-324 200,-324 194,-318 194,-312 194,-312 194,-300 194,-300 194,-294 200,-288 206,-288 206,-288 295,-288 295,-288 301,-288 307,-294 307,-300 307,-300 307,-312 307,-312 307,-318 301,-324 295,-324"/>
<text text-anchor="middle" x="250.5" y="-303.5" font-family="sans" font-size="10.00">raw_make_links_pe</text>
</g>
<!-- 2&#45;&gt;1 -->
<g id="edge4" class="edge">
<title>2&#45;&gt;1</title>
<path fill="none" stroke="grey" stroke-width="2" d="M250.5,-287.7C250.5,-279.98 250.5,-270.71 250.5,-262.11"/>
<polygon fill="grey" stroke="grey" stroke-width="2" points="254,-262.1 250.5,-252.1 247,-262.1 254,-262.1"/>
</g>
<!-- 3&#45;&gt;0 -->
<g id="edge3" class="edge">
<title>3&#45;&gt;0</title>
<path fill="none" stroke="grey" stroke-width="2" d="M167.5,-143.87C167.5,-119.67 167.5,-75.21 167.5,-46.39"/>
<polygon fill="grey" stroke="grey" stroke-width="2" points="171,-46.19 167.5,-36.19 164,-46.19 171,-46.19"/>
</g>
<!-- 6 -->
<g id="node7" class="node">
<title>6</title>
<path fill="none" stroke="#d85656" stroke-width="2" d="M113.5,-108C113.5,-108 37.5,-108 37.5,-108 31.5,-108 25.5,-102 25.5,-96 25.5,-96 25.5,-84 25.5,-84 25.5,-78 31.5,-72 37.5,-72 37.5,-72 113.5,-72 113.5,-72 119.5,-72 125.5,-78 125.5,-84 125.5,-84 125.5,-96 125.5,-96 125.5,-102 119.5,-108 113.5,-108"/>
<text text-anchor="middle" x="75.5" y="-87.5" font-family="sans" font-size="10.00">bcftools_mpileup</text>
</g>
<!-- 3&#45;&gt;6 -->
<g id="edge9" class="edge">
<title>3&#45;&gt;6</title>
<path fill="none" stroke="grey" stroke-width="2" d="M144.76,-143.7C133.06,-134.8 118.64,-123.82 105.99,-114.2"/>
<polygon fill="grey" stroke="grey" stroke-width="2" points="108.06,-111.37 97.98,-108.1 103.82,-116.94 108.06,-111.37"/>
</g>
<!-- 4 -->
<g id="node5" class="node">
<title>4</title>
<path fill="none" stroke="#56d8a2" stroke-width="2" d="M133.5,-252C133.5,-252 61.5,-252 61.5,-252 55.5,-252 49.5,-246 49.5,-240 49.5,-240 49.5,-228 49.5,-228 49.5,-222 55.5,-216 61.5,-216 61.5,-216 133.5,-216 133.5,-216 139.5,-216 145.5,-222 145.5,-228 145.5,-228 145.5,-240 145.5,-240 145.5,-246 139.5,-252 133.5,-252"/>
<text text-anchor="middle" x="97.5" y="-231.5" font-family="sans" font-size="10.00">map_bwa_index</text>
</g>
<!-- 4&#45;&gt;3 -->
<g id="edge7" class="edge">
<title>4&#45;&gt;3</title>
<path fill="none" stroke="grey" stroke-width="2" d="M114.8,-215.7C123.36,-207.14 133.84,-196.66 143.2,-187.3"/>
<polygon fill="grey" stroke="grey" stroke-width="2" points="145.8,-189.65 150.4,-180.1 140.85,-184.7 145.8,-189.65"/>
</g>
<!-- 5 -->
<g id="node6" class="node">
<title>5</title>
<path fill="none" stroke="#567bd8" stroke-width="2" d="M107,-324C107,-324 12,-324 12,-324 6,-324 0,-318 0,-312 0,-312 0,-300 0,-300 0,-294 6,-288 12,-288 12,-288 107,-288 107,-288 113,-288 119,-294 119,-300 119,-300 119,-312 119,-312 119,-318 113,-324 107,-324"/>
<text text-anchor="middle" x="59.5" y="-303.5" font-family="sans" font-size="10.00">raw_extract_genome</text>
</g>
<!-- 5&#45;&gt;3 -->
<g id="edge6" class="edge">
<title>5&#45;&gt;3</title>
<path fill="none" stroke="grey" stroke-width="2" d="M108.91,-288C125.93,-279.72 143.46,-268.02 154.5,-252 166.93,-233.97 169.64,-208.98 169.55,-190.07"/>
<polygon fill="grey" stroke="grey" stroke-width="2" points="173.05,-189.89 169.24,-180.01 166.05,-190.11 173.05,-189.89"/>
</g>
<!-- 5&#45;&gt;4 -->
<g id="edge8" class="edge">
<title>5&#45;&gt;4</title>
<path fill="none" stroke="grey" stroke-width="2" d="M68.89,-287.7C73.26,-279.64 78.56,-269.89 83.4,-260.98"/>
<polygon fill="grey" stroke="grey" stroke-width="2" points="86.52,-262.56 88.21,-252.1 80.37,-259.22 86.52,-262.56"/>
</g>
<!-- 5&#45;&gt;6 -->
<g id="edge11" class="edge">
<title>5&#45;&gt;6</title>
<path fill="none" stroke="grey" stroke-width="2" d="M47.19,-287.94C27.12,-257.88 -8.25,-193.91 14.5,-144 19.73,-132.53 28.8,-122.58 38.37,-114.5"/>
<polygon fill="grey" stroke="grey" stroke-width="2" points="40.75,-117.09 46.46,-108.16 36.43,-111.58 40.75,-117.09"/>
</g>
<!-- 7 -->
<g id="node8" class="node">
<title>7</title>
<path fill="none" stroke="#59d856" stroke-width="2" d="M85.5,-180C85.5,-180 35.5,-180 35.5,-180 29.5,-180 23.5,-174 23.5,-168 23.5,-168 23.5,-156 23.5,-156 23.5,-150 29.5,-144 35.5,-144 35.5,-144 85.5,-144 85.5,-144 91.5,-144 97.5,-150 97.5,-156 97.5,-156 97.5,-168 97.5,-168 97.5,-174 91.5,-180 85.5,-180"/>
<text text-anchor="middle" x="60.5" y="-159.5" font-family="sans" font-size="10.00">index_fasta</text>
</g>
<!-- 5&#45;&gt;7 -->
<g id="edge12" class="edge">
<title>5&#45;&gt;7</title>
<path fill="none" stroke="grey" stroke-width="2" d="M51.61,-287.75C47.39,-277.58 42.64,-264.33 40.5,-252 37.76,-236.24 37.63,-231.74 40.5,-216 42.11,-207.2 45.1,-197.95 48.29,-189.7"/>
<polygon fill="grey" stroke="grey" stroke-width="2" points="51.62,-190.79 52.19,-180.21 45.15,-188.12 51.62,-190.79"/>
</g>
<!-- 6&#45;&gt;0 -->
<g id="edge1" class="edge">
<title>6&#45;&gt;0</title>
<path fill="none" stroke="grey" stroke-width="2" d="M98.24,-71.7C109.94,-62.8 124.36,-51.82 137.01,-42.2"/>
<polygon fill="grey" stroke="grey" stroke-width="2" points="139.18,-44.94 145.02,-36.1 134.94,-39.37 139.18,-44.94"/>
</g>
<!-- 7&#45;&gt;6 -->
<g id="edge10" class="edge">
<title>7&#45;&gt;6</title>
<path fill="none" stroke="grey" stroke-width="2" d="M64.21,-143.7C65.86,-135.98 67.85,-126.71 69.69,-118.11"/>
<polygon fill="grey" stroke="grey" stroke-width="2" points="73.16,-118.62 71.83,-108.1 66.32,-117.15 73.16,-118.62"/>
</g>
</g>
</svg>
